				<svg xmlns="http://www.w3.org/2000/svg" xmlns:xlink="http://www.w3.org/1999/xlink" version="1.1" x="0px" y="0px" viewBox="0 0 161 161" xml:space="preserve" style="opacity: 1;">
					<g>
						<path fill-rule="evenodd" clip-rule="evenodd" d="M139.279,83.191c-0.039-0.002-0.076-0.012-0.119-0.012h-8.934   c-0.566-3.91-1.584-7.672-2.996-11.225l7.719-4.46c2.014-1.165,2.709-3.729,1.551-5.742l-3.154-5.449   c-1.16-2.014-3.73-2.705-5.736-1.544l-7.74,4.472c-2.408-3.036-5.178-5.794-8.211-8.206l4.471-7.736   c1.164-2.014,0.475-4.577-1.535-5.742l-5.455-3.155c-2.014-1.155-4.578-0.464-5.736,1.54l-4.465,7.734   c-3.561-1.41-7.305-2.434-11.221-2.994V31.73c0-2.318-1.879-4.203-4.201-4.203h-6.295c-2.312,0-4.191,1.884-4.191,4.203v8.941   c-3.912,0.56-7.664,1.583-11.231,2.994l-4.454-7.734c-1.163-2.004-3.727-2.683-5.736-1.54l-5.458,3.155   c-2.002,1.165-2.697,3.729-1.54,5.742l4.472,7.736c-3.04,2.412-5.796,5.17-8.214,8.206l-7.73-4.472   c-2.014-1.161-4.577-0.462-5.736,1.544l-3.157,5.449c-1.157,2.014-0.468,4.577,1.536,5.742l7.746,4.46   c-1.428,3.565-2.446,7.315-3.005,11.225h-8.947c-0.042,0-0.08,0.01-0.12,0.012H17.3v33.812c0,9.094,7.371,16.469,16.468,16.469   h93.464c9.094,0,16.467-7.375,16.467-16.469V83.191H139.279z M80.5,120.271c-18.556,0-33.653-15.098-33.653-33.654   c0-18.555,15.097-33.652,33.653-33.652c18.557,0,33.652,15.098,33.652,33.652C114.152,105.174,99.057,120.271,80.5,120.271z"></path>
						<path fill-rule="evenodd" clip-rule="evenodd" d="M80.5,65.202c-11.808,0-21.416,9.606-21.416,21.415   c0,11.811,9.607,21.416,21.416,21.416c11.809,0,21.414-9.605,21.414-21.416C101.914,74.809,92.309,65.202,80.5,65.202z"></path>
					</g>
				</svg>
